<?xml version="1.0" encoding="utf-8"?>
<!-- Generator: Adobe Illustrator 16.0.0, SVG Export Plug-In . SVG Version: 6.00 Build 0)  -->
<!DOCTYPE svg PUBLIC "-//W3C//DTD SVG 1.1//EN" "http://www.w3.org/Graphics/SVG/1.1/DTD/svg11.dtd" [
	<!ENTITY ns_flows "http://ns.adobe.com/Flows/1.0/">
	<!ENTITY ns_extend "http://ns.adobe.com/Extensibility/1.0/">
	<!ENTITY ns_ai "http://ns.adobe.com/AdobeIllustrator/10.0/">
	<!ENTITY ns_graphs "http://ns.adobe.com/Graphs/1.0/">
]>
<svg version="1.1" id="Layer_1" xmlns:x="&ns_extend;" xmlns:i="&ns_ai;" xmlns:graph="&ns_graphs;"
	 xmlns="http://www.w3.org/2000/svg" xmlns:xlink="http://www.w3.org/1999/xlink" xmlns:a="http://ns.adobe.com/AdobeSVGViewerExtensions/3.0/"
	 x="0px" y="0px" width="334.57px" height="66.103px" viewBox="0 0 334.57 66.103" enable-background="new 0 0 334.57 66.103"
	 xml:space="preserve">
<g>
	<polygon stroke="#CC0000" stroke-miterlimit="10" points="289.45,19.58 275.633,26.113 261.582,19.599 261.346,6.55 275.166,0.012 
		289.213,6.527 	"/>
	<polygon stroke="#CC0000" stroke-miterlimit="10" points="275.713,39.043 261.786,45.424 247.843,38.752 247.833,25.702 
		261.762,19.324 275.703,25.993 	"/>
	<polygon stroke="#CC0000" stroke-miterlimit="10" points="317.25,19.607 303.402,26.1 289.381,19.544 289.208,6.493 303.054,0 
		317.075,6.557 	"/>
	<polygon stroke="#CC0000" stroke-miterlimit="10" points="331.57,39.393 317.569,45.965 303.374,39.324 303.174,26.107 
		317.171,19.535 331.37,26.177 	"/>
	<polygon stroke="#CC0000" stroke-miterlimit="10" points="289.545,58.742 275.613,65.12 261.674,58.447 261.665,45.396 
		275.594,39.02 289.534,45.693 	"/>
	<polygon stroke="#CC0000" stroke-miterlimit="10" points="317.315,58.818 303.419,65.299 289.414,58.737 289.303,45.697 
		303.199,39.218 317.206,45.777 	"/>
</g>
<rect x="3.192" y="15.844" fill="none" width="235.5" height="43"/>
<text transform="matrix(1 0 0 1 3.1919 51.2202)" stroke="#000000" stroke-miterlimit="10"  a:adobe-blending-mode="colorBurn" font-family="'Trebuchet-BoldItalic'" font-size="48">JERUE.ME</text>
</svg>
